<svg width="28" height="21" viewBox="0 0 28 21" fill="none" xmlns="http://www.w3.org/2000/svg">
<path d="M10 0H26C27.1045 0 27.9999 0.895365 28 1.99988C27.8162 1.9997 27.6303 2.05013 27.4637 2.15599L18.4991 7.85258L18.4968 7.85398C18.3478 7.9468 18.1756 7.99601 18 7.99601C17.8244 7.99601 17.6522 7.9468 17.5032 7.85398L8.53633 2.15599C8.36974 2.05013 8.18376 1.9997 8 1.99987C8.00007 0.895362 8.89547 0 10 0Z" fill="url(#paint0_linear_1_34)"/>
<path d="M8 4.18482V14C8 15.1046 8.89543 16 10 16H26C27.1046 16 28 15.1046 28 14V4.18482L19.5609 9.54743C19.0931 9.84056 18.5521 9.99601 18 9.99601C17.4479 9.99601 16.9069 9.84055 16.4391 9.54742L16.4337 9.54403L8 4.18482Z" fill="url(#paint1_linear_1_34)"/>
<path d="M4.25 12.7105C5.05512 12.7105 5.82727 12.4194 6.39657 11.9012C6.96588 11.383 7.28571 10.6802 7.28571 9.94737C7.28571 8.4221 6.67857 7.73684 6.07143 6.63158C4.76971 4.263 8 0 10 0C10.6071 2.76316 10.9286 5.41579 13.3571 7.18421C15.7857 8.95263 17 11.0526 17 13.2632C17 14.2792 16.7801 15.2852 16.353 16.2239C15.9258 17.1626 15.2997 18.0155 14.5104 18.7339C13.7211 19.4524 12.7841 20.0223 11.7528 20.4111C10.7215 20.7999 9.61624 21 8.5 21C7.38376 21 6.27846 20.7999 5.24719 20.4111C4.21592 20.0223 3.27889 19.4524 2.48959 18.7339C1.70029 18.0155 1.07419 17.1626 0.647024 16.2239C0.219859 15.2852 -1.66332e-08 14.2792 0 13.2632C0 11.9888 0.525786 10.7277 1.21429 9.94737C1.21429 10.6802 1.53412 11.383 2.10343 11.9012C2.67273 12.4194 3.44488 12.7105 4.25 12.7105Z" fill="url(#paint2_linear_1_34)"/>
<defs>
<linearGradient id="paint0_linear_1_34" x1="0" y1="0" x2="28" y2="21" gradientUnits="userSpaceOnUse">
<stop stop-color="#DC2626"/>
<stop offset="1" stop-color="#F97316"/>
</linearGradient>
<linearGradient id="paint1_linear_1_34" x1="0" y1="0" x2="28" y2="21" gradientUnits="userSpaceOnUse">
<stop stop-color="#DC2626"/>
<stop offset="1" stop-color="#F97316"/>
</linearGradient>
<linearGradient id="paint2_linear_1_34" x1="0" y1="0" x2="28" y2="21" gradientUnits="userSpaceOnUse">
<stop stop-color="#DC2626"/>
<stop offset="1" stop-color="#F97316"/>
</linearGradient>
</defs>
</svg>
